<?xml version="1.0" encoding="UTF-8" standalone="no"?>
<svg
   version="1.1"
   id="Ebene_1"
   x="0px"
   y="0px"
   width="595.275px"
   height="595.275px"
   viewBox="200 215 230 470"
   xml:space="preserve"
   sodipodi:docname="editCircle.svg"
   inkscape:version="1.1.2 (0a00cf5339, 2022-02-04)"
   xmlns:inkscape="http://www.inkscape.org/namespaces/inkscape"
   xmlns:sodipodi="http://sodipodi.sourceforge.net/DTD/sodipodi-0.dtd"
   xmlns="http://www.w3.org/2000/svg"
   xmlns:svg="http://www.w3.org/2000/svg"><defs
   id="defs11" /><sodipodi:namedview
   id="namedview9"
   pagecolor="#ffffff"
   bordercolor="#666666"
   borderopacity="1.0"
   inkscape:pageshadow="2"
   inkscape:pageopacity="0.0"
   inkscape:pagecheckerboard="0"
   showgrid="false"
   inkscape:zoom="1.466549"
   inkscape:cx="297.63751"
   inkscape:cy="297.29658"
   inkscape:window-width="2560"
   inkscape:window-height="1301"
   inkscape:window-x="0"
   inkscape:window-y="27"
   inkscape:window-maximized="1"
   inkscape:current-layer="Ebene_1" />
    <circle
   style="fill:#e5e7eb;"
   cx="299.76"
   cy="439.067"
   r="218.516"
   id="circle2" />
    <g
   id="g6"
   transform="matrix(0.54200774,0,0,0.54200774,146.83354,293.82745)">
        <path
   fill="#33364e"
   viewBox="12 0 576 512"
   d="m 402.3,344.9 32,-32 c 5,-5 13.7,-1.5 13.7,5.7 V 464 c 0,26.5 -21.5,48 -48,48 H 48 C 21.5,512 0,490.5 0,464 V 112 C 0,85.5 21.5,64 48,64 h 273.5 c 7.1,0 10.7,8.6 5.7,13.7 l -32,32 c -1.5,1.5 -3.5,2.3 -5.7,2.3 H 48 V 464 H 400 V 350.5 c 0,-2.1 0.8,-4.1 2.3,-5.6 z m 156.6,-201.8 -262.6,262.6 -90.4,10 c -26.2,2.9 -48.5,-19.2 -45.6,-45.6 l 10,-90.4 262.6,-262.6 c 22.9,-22.9 59.9,-22.9 82.7,0 l 43.2,43.2 c 22.9,22.9 22.9,60 0.1,82.8 z M 460.1,174 402,115.9 216.2,301.8 l -7.3,65.3 65.3,-7.3 z M 524.9,94.3 481.7,51.1 C 477.6,47 470.9,47 466.9,51.1 L 436,82 494.1,140.1 525,109.2 c 4,-4.2 4,-10.8 -0.1,-14.9 z"
   id="path4" />
    </g>
</svg>
