<svg xmlns="http://www.w3.org/2000/svg" xmlns:xlink="http://www.w3.org/1999/xlink" version="1.1" id="Ebene_1" x="0px" y="0px" width="595.275px" height="595.275px" viewBox="200 215 230 470" xml:space="preserve">
    <circle style="fill:#e5e7eb;" cx="299.76" cy="439.067" r="218.516"/>
    <g>
        <path fill="#33364e" viewBox="12 0 576 512" d=" M 301.9091 371.4954 a 63.2624 63.2624 90 0 0 -17.8143 2.8512 a 31.5913 31.5913 90 0 1 4.1285 15.3965 a 31.9334 31.9334 90 0 1 -31.9334 31.9334 a 31.5913 31.5913 90 0 1 -15.3965 -4.1285 A 63.7015 63.7015 90 1 0 301.9091 371.4954 z m 162.2447 55.5414 C 433.2297 366.6996 372.0087 325.8762 301.9091 325.8762 S 170.5714 366.7282 139.6644 427.0424 a 18.4473 18.4473 90 0 0 0 16.6453 C 170.5886 504.0248 231.8095 544.8483 301.9091 544.8483 s 131.3377 -40.852 162.2447 -101.1663 a 18.4473 18.4473 90 0 0 0 -16.6453 z M 301.9091 517.4768 c -56.2542 0 -107.8267 -31.3632 -135.6772 -82.1146 C 194.0824 384.6109 245.6492 353.2477 301.9091 353.2477 s 107.8267 31.3632 135.6772 82.1146 C 409.7415 486.1136 358.169 517.4768 301.9091 517.4768 z  "/>
    </g>
</svg>